<svg xmlns="http://www.w3.org/2000/svg" width="200" height="200" fill="none" viewBox="0 0 200 200" version="1.1" xmlns:xlink="http://www.w3.org/1999/xlink" xmlns:svgjs="http://svgjs.dev/svgjs"><path fill="url(&quot;#SvgjsLinearGradient1956&quot;)" d="m100 0 1.384 87.067c.056 3.502 4.267 5.246 6.783 2.81l62.544-60.588-60.587 62.544c-2.437 2.516-.693 6.727 2.809 6.783L200 100l-87.067 1.384c-3.502.056-5.246 4.267-2.809 6.783l60.587 62.544-62.544-60.587c-2.516-2.437-6.727-.693-6.783 2.809L100 200l-1.384-87.067c-.056-3.502-4.267-5.246-6.782-2.809l-62.545 60.587 60.587-62.544c2.437-2.516.693-6.727-2.81-6.783L0 100l87.067-1.384c3.502-.056 5.246-4.267 2.81-6.782L29.288 29.288l62.544 60.587c2.516 2.437 6.727.693 6.783-2.81L100 0Z"></path><defs><linearGradient gradientTransform="rotate(45 0.5 0.5)" id="SvgjsLinearGradient1956"><stop stop-opacity=" 1" stop-color="rgba(105, 234, 203)" offset="0"></stop><stop stop-opacity=" 1" stop-color="rgba(114, 80, 130)" offset="0.586875"></stop><stop stop-opacity=" 1" stop-color="rgba(0, 0, 0)" offset="1"></stop></linearGradient></defs></svg>